<?xml version="1.0" encoding="UTF-8"?>
<svg xmlns="http://www.w3.org/2000/svg" version="1.1" viewBox="0 0 1240 430.6">
  <defs>
    <style>
      .cls-1 {
        fill: #fff;
      }
    </style>
  </defs>
  <!-- Generator: Adobe Illustrator 28.7.10, SVG Export Plug-In . SVG Version: 1.2.0 Build 236)  -->
  <g>
    <g id="_レイヤー_1" data-name="レイヤー_1">
      <g>
        <path class="cls-1" d="M958.6,6.4c-114.2,0-207.1,93.8-207.1,209.1s92.9,209.1,207.1,209.1,127.4-32.7,165.3-83.2v-22.1c-34.3,55.7-95.5,92.8-165.3,92.8-107.5,0-194.6-88-194.6-196.5S851.1,18.9,958.6,18.9s130.9,37.1,165.3,92.8v-22.1c-37.8-50.5-97.8-83.2-165.3-83.2Z"/>
        <path class="cls-1" d="M625,387.4c0,17-13.8,30.9-30.9,30.9s-30.9-13.8-30.9-30.9V6.4h-12.5v365.9c0,29.6-32.1,46-54.4,46-37.9,0-57.1-15.9-75.3-34.1,25.5-26,41.2-60.8,41.2-99,0-94.5.1-252.9.1-252.9,0-10.8,8.8-19.5,19.5-19.5s19.5,8.8,19.5,19.5h0l12.5-1.5c-.8-17-14.8-30.5-32-30.5s-32.1,14.4-32.1,32.1c0,0-.1,158.4-.1,252.9s-14.2,66.4-37.4,90.1c-2.5-2.5-5.1-5.1-7.7-7.6-1.6-1.6-3.3-3.1-5-4.7-8-7.6-16.7-15.8-26.4-23.4,25.5-34.7,40.6-77.7,40.6-124.1,0-115.3-92.9-209.1-207.1-209.1S-.5,100.2-.5,215.5s92.9,209.1,207.1,209.1,38.8-2.9,56.9-8.1c13.7,9.3,30.6,14.3,44.8,14.3,39.9,0,76.3-14.4,103.7-38.1,18.9,18.8,41.6,38.1,84.5,38.1s31.4-5.6,43.9-15c5.3-4,9.7-8.5,13.2-13.4,6.1,16.6,22,28.4,40.7,28.4s43.4-19.5,43.4-43.4V6.4h-12.5v381ZM12,215.5C12,106.9,99.2,18.9,206.6,18.9s194.6,88,194.6,196.5-14.2,84.2-38.2,116.9c-16.3-10.7-35.4-18.6-59-18.6s-31.4,5.6-43.9,15c-14.8,11.2-23,26.6-23,43.5s5.8,25.1,14.6,34.4c-14.5,3.5-29.6,5.4-45.1,5.4-107.5,0-194.6-88-194.6-196.5ZM249.7,372.3c0-29.6,32.1-46,54.4-46s36.8,6.6,51.2,15.9c-23.3,27.9-54.2,49.1-89.4,60.5-9.5-7.8-16.2-18.1-16.2-30.4ZM308.2,418.2c-8.9,0-19.3-2.5-28.9-7.1,33.7-12.8,63.3-34.3,86.1-61.7,9.2,7.1,17.5,15,25.4,22.6,1.7,1.6,3.4,3.2,5,4.8,2.4,2.3,4.8,4.6,7.1,7-25.1,21.4-58.4,34.4-94.8,34.4Z"/>
        <polygon class="cls-1" points="766.4 18.9 766.4 6.4 720.1 6.4 707.6 6.4 661.3 6.4 661.3 18.9 707.6 18.9 707.6 424.5 720.1 424.5 720.1 18.9 766.4 18.9"/>
        <path class="cls-1" d="M1227,6.4v170c-22.2,1.9-41.6,13.9-53.5,31.4V6.4h-12.5v418.1h12.5v-176c0-30.9,23.5-56.3,53.5-59.5v235.5h12.5V6.4h-12.5Z"/>
      </g>
    </g>
  </g>
</svg>